<svg width="1000" height="500" viewBox="0 0 1000 500" fill="none" xmlns="http://www.w3.org/2000/svg">
<path d="M359.105 382V277H432.605V340H390.605V382H359.105ZM401.105 319V298H390.605V319H401.105ZM447.582 382V277H521.082V319H510.582V329.5H521.082V382H489.582V340H479.082V382H447.582ZM489.582 319V298H479.082V319H489.582ZM536.059 382V277H609.559V382H536.059ZM578.059 361V298H567.559V361H578.059ZM666.535 361V277H698.035V382H624.535V340H656.035V361H666.535ZM744.512 340V361H786.512V382H713.012V277H786.512V298H744.512V319H776.012V340H744.512ZM864.488 361V382H801.488V277H864.488V298H832.988V361H864.488ZM931.918 298V382H900.418V298H879.418V277H952.918V298H931.918Z" fill="#CC353F"/>
<rect x="353" y="238" width="606" height="25" fill="#CC353F"/>
<path d="M398.07 178V115H429.57V157H440.07V115H471.57V178H461.07V199H450.57V220H419.07V199H408.57V178H398.07ZM518.047 178V199H560.047V220H486.547V115H560.047V136H518.047V157H549.547V178H518.047ZM575.023 178V115H648.523V136H606.523V157H648.523V220H575.023V199H617.023V178H575.023ZM663.5 220V115H737V178H695V220H663.5ZM705.5 157V136H695V157H705.5ZM783.477 178V199H825.477V220H751.977V115H825.477V136H783.477V157H814.977V178H783.477ZM840.453 220V115H913.953V157H903.453V167.5H913.953V220H882.453V178H871.953V220H840.453ZM882.453 157V136H871.953V157H882.453Z" fill="#CC353F"/>
<path d="M173.912 39.9119L170.29 33.9946L166.984 40.0935C142.859 84.5901 117.459 122.192 94.6537 155.953C85.6436 169.292 77.0386 182.031 69.0773 194.358C41.1368 237.622 21 276.004 21 316.5C21 397.226 91.1003 462.5 167.498 462.5C243.668 462.5 316 401.517 316 320.5C316 297.278 314.141 279.408 309.492 262.807C304.842 246.2 297.46 231.073 286.67 213.282C278.22 199.349 267.592 183.645 254.467 164.252C250.891 158.968 247.13 153.41 243.177 147.54C224.681 120.073 201.871 85.596 173.912 39.9119Z" fill="#CC353F" stroke="#1C081C" stroke-width="8"/>
</svg>
